<svg id="Layer_1" data-name="Layer 1" xmlns="http://www.w3.org/2000/svg" xmlns:xlink="http://www.w3.org/1999/xlink" viewBox="0 0 81.65 116.95"><defs><style>.cls-1{fill:none;}.cls-2,.cls-3,.cls-6{fill:#fff;}.cls-2{clip-rule:evenodd;}.cls-4{clip-path:url(#clip-path);}.cls-5{clip-path:url(#clip-path-2);}.cls-6{fill-rule:evenodd;}.cls-7{clip-path:url(#clip-path-3);}.cls-8{clip-path:url(#clip-path-4);}.cls-9{clip-path:url(#clip-path-5);}.cls-10{clip-path:url(#clip-path-6);}</style><clipPath id="clip-path"><path class="cls-1" d="M6.64,95.74c.6,0,1.2-.78,3.13-1.17a9.75,9.75,0,0,1,4.14.12l6.55-6.22c.78-.69.22-.69.23-2.53a8.83,8.83,0,0,1,14.62-6.56c2.16,1.84,2.66,3.73,3,6.56.91.63,2.18,1.29,3.22,1.89s2.2,1.29,3.31,1.93c2.29,1.32,1.06.84,3.49.12s4.14.08,4.66-.14c.29-.12,7.12-7.24,8.09-8.16.74-.7.32-.86.2-2.06a8.78,8.78,0,0,1,5-8.62c4.66-2.24,7.57.24,8.65.54.12-1.56,0-3.61,0-5.23a10.91,10.91,0,0,0-3-7.61,19.8,19.8,0,0,0-3-2.37C65.68,54,60,52.13,55.81,50.91a19.55,19.55,0,0,0-2.1-.62,39.05,39.05,0,0,1-3.53,2.91,18.38,18.38,0,0,1-4.34,2.19c-5.63,1.93-10.62.5-15.12-2.72L28.91,51.2c-1-.87-.49-1-2-.56C19.8,52.84,9,55.46,7,63.44a26.2,26.2,0,0,0-.35,6.15c0,8.72,0,17.44,0,26.15Z"/></clipPath><clipPath id="clip-path-2"><path class="cls-1" d="M38.58,7.4a16.32,16.32,0,0,0-10.46,4.65c-.22.23-.34.33-.6.61-2.21,2.32-3.64,6.59-3.88,10.07-.06.86-.06,1.62-.06,2.48,0,1.57,0,1-.55,1.93a7.53,7.53,0,0,0-.51,4.4c.66,4.83,2.36,4.86,2.83,5.89a30,30,0,0,0,4.16,7.28,17.52,17.52,0,0,0,3,3.21,10,10,0,0,0,2.21,1.71A11.19,11.19,0,0,0,43,51.22a14.67,14.67,0,0,0,6.51-3.52A27.55,27.55,0,0,0,54,42c.62-1.08,1.15-2.06,1.72-3.29,1.53-3.34,1.08-1.33,2-3,1.13-1.92,2.16-5.92,1-8.33-.42-.92-.7-.39-.71-1.8,0-.85,0-1.65,0-2.51a16.53,16.53,0,0,0-4.28-10.83l-1.92-1.78C48.59,7.85,42.84,7,38.58,7.4Z"/></clipPath><clipPath id="clip-path-3"><path class="cls-2" d="M6.64,95.74c.6,0,1.2-.78,3.13-1.17a9.75,9.75,0,0,1,4.14.12l6.55-6.22c.78-.69.22-.69.23-2.53a8.83,8.83,0,0,1,14.62-6.56c2.16,1.84,2.66,3.73,3,6.56.91.63,2.18,1.29,3.22,1.89s2.2,1.29,3.31,1.93c2.29,1.32,1.06.84,3.49.12s4.14.08,4.66-.14c.29-.12,7.12-7.24,8.09-8.16.74-.7.32-.86.2-2.06a8.78,8.78,0,0,1,5-8.62c4.66-2.24,7.57.24,8.65.54.12-1.56,0-3.61,0-5.23a10.91,10.91,0,0,0-3-7.61,19.8,19.8,0,0,0-3-2.37C65.68,54,60,52.13,55.81,50.91a19.55,19.55,0,0,0-2.1-.62,39.05,39.05,0,0,1-3.53,2.91,18.38,18.38,0,0,1-4.34,2.19c-5.63,1.93-10.62.5-15.12-2.72L28.91,51.2c-1-.87-.49-1-2-.56C19.8,52.84,9,55.46,7,63.44a26.2,26.2,0,0,0-.35,6.15c0,8.72,0,17.44,0,26.15Z"/></clipPath><clipPath id="clip-path-4"><rect class="cls-3" x="6.51" y="50.17" width="68.62" height="45.61"/></clipPath><clipPath id="clip-path-5"><path class="cls-2" d="M38.58,7.4a16.32,16.32,0,0,0-10.46,4.65c-.22.23-.34.33-.6.61-2.21,2.32-3.64,6.59-3.88,10.07-.06.86-.06,1.62-.06,2.48,0,1.57,0,1-.55,1.93a7.53,7.53,0,0,0-.51,4.4c.66,4.83,2.36,4.86,2.83,5.89a30,30,0,0,0,4.16,7.28,17.52,17.52,0,0,0,3,3.21,10,10,0,0,0,2.21,1.71A11.19,11.19,0,0,0,43,51.22a14.67,14.67,0,0,0,6.51-3.52A27.55,27.55,0,0,0,54,42c.62-1.08,1.15-2.06,1.72-3.29,1.53-3.34,1.08-1.33,2-3,1.13-1.92,2.16-5.92,1-8.33-.42-.92-.7-.39-.71-1.8,0-.85,0-1.65,0-2.51a16.53,16.53,0,0,0-4.28-10.83l-1.92-1.78C48.59,7.85,42.84,7,38.58,7.4Z"/></clipPath><clipPath id="clip-path-6"><rect class="cls-3" x="22.33" y="7" width="37.56" height="44.86"/></clipPath></defs><title>Contact_number</title><path class="cls-6" d="M6.64,95.74c.6,0,1.2-.78,3.13-1.17a9.75,9.75,0,0,1,4.14.12l6.55-6.22c.78-.69.22-.69.23-2.53a8.83,8.83,0,0,1,14.62-6.56c2.16,1.84,2.66,3.73,3,6.56.91.63,2.18,1.29,3.22,1.89s2.2,1.29,3.31,1.93c2.29,1.32,1.06.84,3.49.12s4.14.08,4.66-.14c.29-.12,7.12-7.24,8.09-8.16.74-.7.32-.86.2-2.06a8.78,8.78,0,0,1,5-8.62c4.66-2.24,7.57.24,8.65.54.12-1.56,0-3.61,0-5.23a10.91,10.91,0,0,0-3-7.61,19.8,19.8,0,0,0-3-2.37C65.68,54,60,52.13,55.81,50.91a19.55,19.55,0,0,0-2.1-.62,39.05,39.05,0,0,1-3.53,2.91,18.38,18.38,0,0,1-4.34,2.19c-5.63,1.93-10.62.5-15.12-2.72L28.91,51.2c-1-.87-.49-1-2-.56C19.8,52.84,9,55.46,7,63.44a26.2,26.2,0,0,0-.35,6.15c0,8.72,0,17.44,0,26.15Z"/><g class="cls-7"><rect class="cls-3" x="6.51" y="50.17" width="68.62" height="45.61"/><g class="cls-8"><path class="cls-3" d="M95.38,40.32H1.24v60.91H95.38Z"/></g></g><path class="cls-6" d="M38.58,7.4a16.32,16.32,0,0,0-10.46,4.65c-.22.23-.34.33-.6.61-2.21,2.32-3.64,6.59-3.88,10.07-.06.86-.06,1.62-.06,2.48,0,1.57,0,1-.55,1.93a7.53,7.53,0,0,0-.51,4.4c.66,4.83,2.36,4.86,2.83,5.89a30,30,0,0,0,4.16,7.28,17.52,17.52,0,0,0,3,3.21,10,10,0,0,0,2.21,1.71A11.19,11.19,0,0,0,43,51.22a14.67,14.67,0,0,0,6.51-3.52A27.55,27.55,0,0,0,54,42c.62-1.08,1.15-2.06,1.72-3.29,1.53-3.34,1.08-1.33,2-3,1.13-1.92,2.16-5.92,1-8.33-.42-.92-.7-.39-.71-1.8,0-.85,0-1.65,0-2.51a16.53,16.53,0,0,0-4.28-10.83l-1.92-1.78C48.59,7.85,42.84,7,38.58,7.4Z"/><g class="cls-9"><rect class="cls-3" x="22.33" y="7" width="37.56" height="44.86"/><g class="cls-10"><path class="cls-3" d="M71.75-2.71H18.35V58.2h53.4Z"/></g></g><path class="cls-6" d="M14.48,103.94c-.9,3.8-6.9,2.44-5.86-1.48s6.79-2.43,5.86,1.48ZM50.3,95.38a3,3,0,0,1,3.44,2.56c.53,4.12-5.53,4.64-6,.83a3,3,0,0,1,2.52-3.39ZM29,83.07a3,3,0,0,1,3.5,2.42A3,3,0,1,1,29,83.07Zm40.67-7.2c4.16-.6,4.65,5.4,1.07,5.93-4.23.62-4.82-5.38-1.07-5.93Zm-2.3,8.8c.92.12,2.34,1.13,4.85.25a6.26,6.26,0,0,0,3.26-2.53,6.39,6.39,0,0,0-5.39-10A6.12,6.12,0,0,0,65.89,74a6.27,6.27,0,0,0-2.08,3.66c-.61,3.59,1.35,3.33-.05,4.67L57.9,88.18C51.79,94.11,55,92.25,51.2,92a6.35,6.35,0,0,0-3.55.8c-1.33.7-.49,1.11-2.74-.2-2.07-1.21-7.59-4.31-9.06-5.33,0-.61.14-1,0-1.79a6.67,6.67,0,0,0-.32-1.54,6.88,6.88,0,0,0-1.46-2.35A6.39,6.39,0,0,0,24,82.75c-1.78,2.87-.4,5.45-.38,6.08l-7.1,6.72c-.37.32-.61.66-1,1-1.36,1.27-.64.92-2.44.43a6.54,6.54,0,0,0-7.58,4,6.43,6.43,0,0,0,11.38,5.81,6.06,6.06,0,0,0,1-2.9,7.28,7.28,0,0,0-.07-1.87c-.11-.53-.38-1-.42-1.5a19.87,19.87,0,0,0,1.76-1.7,14.33,14.33,0,0,1,1.74-1.64c.32-.29.55-.59.86-.88s.54-.49.86-.77c1.42-1.24,2.13-2.14,3.42-3.35.48-.45.62-.32,1.24-.07,3.31,1.35,5.65-.78,6.43-1.12.79.33,7.89,4.62,9.34,5.41a5.17,5.17,0,0,1,1.27.83c.12.22-.8,5.33,4.11,7.2a6.45,6.45,0,0,0,7.82-2.76c1.47-2.48.81-4.16.26-6.07a41.45,41.45,0,0,1,4.08-4.09c.48-.48.86-.89,1.35-1.37,1.82-1.78,3.5-3.69,5.36-5.41Z"/></svg>