<svg xmlns="http://www.w3.org/2000/svg" viewBox="0 0 97.95 70.52"><defs><style>.cls-1{isolation:isolate;}.cls-2,.cls-3{fill:#fff;}.cls-3{opacity:0.2;mix-blend-mode:multiply;}</style></defs><title>Email</title><g class="cls-1"><g id="Layer_1" data-name="Layer 1"><path class="cls-2" d="M7.7,65V19.35c.73.51,26.73,21,38.95,30.86,1.7,1.36,2.89,1.47,4.63,0,5.21-4.27,31.27-24.51,39-30.5V65Z"/><path class="cls-2" d="M90.25,5.55v5.36c-.62.42-1.27.8-1.86,1.26Q69.47,27,50.61,41.83c-1.29,1-2,1-3.29,0-8-6.43-16-12.78-24-19.13C18.11,18.57,12.9,14.55,7.7,10.5V5.55Z"/><path class="cls-3" d="M7.7,10.5c5.2,4.05,10.41,8.07,15.58,12.15,8,6.35,16.07,12.7,24,19.13,1.24,1,2,1.07,3.29,0Q69.45,26.94,88.39,12.17c.59-.46,1.24-.84,1.86-1.26V15Q78.7,24,67.15,33c-5.31,4.15-10.66,8.25-15.87,12.52-1.74,1.42-2.93,1.31-4.63,0C34.43,35.67,22.14,25.94,9.86,16.18c-.69-.55-1.43-1-2.16-1.55Z"/></g></g></svg>