<svg id="Layer_1" data-name="Layer 1" xmlns="http://www.w3.org/2000/svg" viewBox="0 0 87.7 87.69"><defs><style>.cls-1{fill:#fff;}</style></defs><title>Website)_</title><path class="cls-1" d="M3.77,43.82a40.08,40.08,0,1,1,39.91,40.1A40.15,40.15,0,0,1,3.77,43.82ZM28.7,33.19c-1.21,4.43-1.2,17.13,0,21.3H59.13a71.73,71.73,0,0,0,0-21.3ZM58,27.77C56.62,22.34,54.73,17.26,51,13a14.59,14.59,0,0,0-2.72-2.42,7.23,7.23,0,0,0-8.94,0,12.22,12.22,0,0,0-1.89,1.54c-4.25,4.35-6.28,9.8-7.83,15.63Zm0,32.15H29.68a35.9,35.9,0,0,0,5.57,12.92,20.36,20.36,0,0,0,3.82,4c3.19,2.48,6.47,2.38,9.71,0a13.07,13.07,0,0,0,1.44-1.24C54.46,71.2,56.49,65.75,58,59.92ZM10.91,33.18a1.16,1.16,0,0,0-.19.24,34,34,0,0,0-.18,20.42c.2.69.64.74,1.23.74H23.28a76,76,0,0,1,0-21.4Zm53.7,0c.21,3.65.57,7.17.57,10.68s-.36,7.08-.57,10.72c3.75,0,7.46,0,11.16,0,1,0,1.3-.41,1.54-1.25a34.42,34.42,0,0,0,1.25-11.81,29.56,29.56,0,0,0-1.67-8.37ZM63.47,59.91A49.67,49.67,0,0,1,57,75.85,34.13,34.13,0,0,0,74.67,59.91ZM57,11.86a49.69,49.69,0,0,1,6.48,15.88H74.65A34,34,0,0,0,57,11.86ZM30.77,76c-1.41-2.8-2.85-5.26-3.94-7.87S25,62.74,24,59.92H13A35.25,35.25,0,0,0,30.77,76Zm.12-64.18c-5.64,1-16.72,11.14-17.56,15.88H24.25A45.71,45.71,0,0,1,30.89,11.86Z"/></svg>